{
  "accessors": [
    {
      "name": "PipeAxeTriangulated_1_0_positions",
      "componentType": 5126,
      "count": 4791,
      "min": [
        -66.00841522216797,
        -11.731136322021484,
        -87.26417541503906
      ],
      "max": [
        30.099674224853516,
        20.008390426635742,
        106.59422302246094
      ],
      "type": "VEC3",
      "bufferView": 0,
      "byteOffset": 0
    },
    {
      "name": "PipeAxeTriangulated_1_0_normals",
      "componentType": 5126,
      "count": 4791,
      "min": [
        -1,
        -1,
        -1
      ],
      "max": [
        1,
        1,
        1
      ],
      "type": "VEC3",
      "bufferView": 1,
      "byteOffset": 0
    },
    {
      "name": "PipeAxeTriangulated_1_0_texcoords",
      "componentType": 5126,
      "count": 4791,
      "min": [
        0.005661999806761742,
        0.0048790001310408115
      ],
      "max": [
        0.9920889735221863,
        0.9960439801216125
      ],
      "type": "VEC2",
      "bufferView": 2,
      "byteOffset": 0
    },
    {
      "name": "PipeAxeTriangulated_1_0_indices",
      "componentType": 5123,
      "count": 21201,
      "min": [
        0
      ],
      "max": [
        4790
      ],
      "type": "SCALAR",
      "bufferView": 3,
      "byteOffset": 0
    }
  ],
  "asset": {
    "generator": "obj2gltf",
    "version": "2.0"
  },
  "buffers": [
    {
      "name": "6bbbceba649d4d078fae6b4ee8131344",
      "byteLength": 195716,
      "uri": "data:application/octet-stream;base64,"
    }
  ],
  "bufferViews": [
    {
      "name": "bufferView_0",
      "buffer": 0,
      "byteLength": 57492,
      "byteOffset": 0,
      "byteStride": 12,
      "target": 34962
    },
    {
      "name": "bufferView_1",
      "buffer": 0,
      "byteLength": 57492,
      "byteOffset": 57492,
      "byteStride": 12,
      "target": 34962
    },
    {
      "name": "bufferView_2",
      "buffer": 0,
      "byteLength": 38328,
      "byteOffset": 114984,
      "byteStride": 8,
      "target": 34962
    },
    {
      "name": "bufferView_3",
      "buffer": 0,
      "byteLength": 42404,
      "byteOffset": 153312,
      "target": 34963
    }
  ],
  "materials": [
    {
      "name": "default",
      "pbrMetallicRoughness": {
        "baseColorFactor": [
          0.5,
          0.5,
          0.5,
          1
        ],
        "metallicFactor": 0,
        "roughnessFactor": 1
      },
      "emissiveFactor": [
        0,
        0,
        0
      ],
      "alphaMode": "OPAQUE",
      "doubleSided": false
    }
  ],
  "meshes": [
    {
      "name": "PipeAxeTriangulated_1",
      "primitives": [
        {
          "attributes": {
            "POSITION": 0,
            "NORMAL": 1,
            "TEXCOORD_0": 2
          },
          "indices": 3,
          "material": 0,
          "mode": 4
        }
      ]
    }
  ],
  "nodes": [
    {
      "name": "PipeAxeTriangulated",
      "mesh": 0
    }
  ],
  "scene": 0,
  "scenes": [
    {
      "nodes": [
        0
      ]
    }
  ]
}
